<svg width="167" height="29" viewBox="0 0 167 29" fill="none" xmlns="http://www.w3.org/2000/svg">
<g id="Layer_1" clip-path="url(#clip0_472_11162)">
<path id="Vector" d="M54.5507 14.6416C55.9489 16.1718 56.6557 17.9972 56.6557 20.0633C56.6557 22.4246 55.7159 24.4985 53.8672 26.2462C52.0263 27.9783 49.5407 28.8638 46.4726 28.8638C44.7405 28.8638 43.1404 28.5997 41.7345 28.0793C40.313 27.5511 39.1401 26.8287 38.2547 25.9355C37.3925 25.0578 36.7012 24.1101 36.2196 23.1237C35.7302 22.1294 35.4273 21.0808 35.3186 20.0167L35.2642 19.504L41.2451 17.9195L41.3073 18.6341C41.416 19.9157 41.9053 20.9566 42.7908 21.8032C43.653 22.6343 44.9036 23.0538 46.5114 23.0538C47.7154 23.0538 48.6553 22.7974 49.3 22.2848C49.9136 21.8032 50.2087 21.1896 50.2087 20.4051C50.2087 19.7914 49.9913 19.2788 49.5407 18.8283C49.0669 18.3545 48.3756 18.0282 47.4746 17.8496L43.7695 17.1039C41.5092 16.6301 39.6839 15.6747 38.3634 14.2688C37.0119 12.8396 36.3283 11.0375 36.3283 8.91702C36.3283 6.40037 37.307 4.26433 39.2489 2.55549C41.1597 0.862186 43.4977 0.00776744 46.1774 0.00776744C47.762 0.00776744 49.199 0.233023 50.4573 0.675767C51.7312 1.12628 52.7798 1.74767 53.5565 2.51665C54.3177 3.27009 54.9236 4.0546 55.3508 4.85465C55.778 5.64693 56.0809 6.49358 56.2673 7.3713L56.3839 7.91502L50.566 9.69377L50.4418 9.02577C50.2864 8.19465 49.8747 7.44898 49.1834 6.75767C48.531 6.10521 47.529 5.77121 46.2085 5.77121C45.1288 5.77121 44.2744 6.05084 43.6064 6.61786C42.9695 7.16158 42.6588 7.79074 42.6588 8.53642C42.6588 9.36753 42.9073 10.5171 45.0512 10.9366L48.7562 11.6434C51.2185 12.1172 53.1681 13.1192 54.5507 14.6339V14.6416ZM79.8182 17.6166C79.4299 18.9681 78.6531 20.1565 77.5113 21.143C76.3928 22.1139 74.8626 22.6033 72.9518 22.6033C70.8235 22.6033 69.0603 21.8887 67.5534 20.4206C66.0699 18.9759 65.3242 16.9641 65.3242 14.4552C65.3242 11.9463 66.0854 9.76367 67.5845 8.34223C69.1147 6.88972 70.8468 6.19065 72.8741 6.19065C74.9014 6.19065 76.3384 6.66446 77.4181 7.59656C78.5133 8.54419 79.2434 9.71707 79.5852 11.0841L79.7406 11.7055L85.7603 9.81028L85.6283 9.25879C84.9991 6.7266 83.5932 4.52842 81.4416 2.72637C79.2823 0.916558 76.4006 0 72.8741 0C69.037 0 65.6893 1.35153 62.9318 4.02353C60.1666 6.7033 58.7607 10.2064 58.7607 14.4474C58.7607 18.6885 60.1433 22.2227 62.8697 24.8713C65.596 27.52 68.9827 28.856 72.944 28.856C74.7772 28.856 76.4938 28.5687 78.0395 27.9939C79.593 27.4191 80.8979 26.6501 81.9232 25.7025C82.933 24.7704 83.7719 23.7528 84.4088 22.6887C85.0457 21.6246 85.5118 20.5138 85.8069 19.3875L85.9467 18.8283L79.9813 17.0262L79.8105 17.6166H79.8182ZM112.03 3.9847C114.811 6.6334 116.224 10.1598 116.224 14.4474C116.224 18.7351 114.811 22.2227 112.03 24.8791C109.257 27.52 105.87 28.8638 101.955 28.8638C98.0406 28.8638 94.6929 27.52 91.9199 24.8791C89.1392 22.2304 87.7255 18.7195 87.7255 14.4474C87.7255 10.1753 89.1392 6.6334 91.9199 3.9847C94.6929 1.34377 98.0717 0 101.955 0C105.839 0 109.249 1.34377 112.03 3.9847ZM109.661 14.4164C109.661 11.7832 108.892 9.7326 107.385 8.3267C105.839 6.88972 104.068 6.19065 101.955 6.19065C99.8427 6.19065 98.1106 6.88972 96.5648 8.3267C95.0502 9.7326 94.289 11.7832 94.289 14.4164C94.289 17.0495 95.058 19.0924 96.5648 20.506C98.1106 21.943 99.8738 22.6421 101.955 22.6421C104.037 22.6421 105.839 21.943 107.385 20.506C108.9 19.1001 109.661 17.0495 109.661 14.4164ZM134.889 17.935C134.889 19.4885 134.571 20.6692 133.802 21.4614C133.025 22.2537 131.984 22.6421 130.547 22.6421C129.11 22.6421 128.085 22.2537 127.308 21.4614C126.539 20.6692 126.167 19.4885 126.167 17.935V0.69907H119.626V18.3079C119.626 21.609 120.745 24.2344 122.788 26.1064C124.815 27.9628 127.448 28.9027 130.532 28.9027C133.616 28.9027 136.28 27.9628 138.307 26.1064C140.35 24.2344 141.422 21.609 141.422 18.3079V0.69907H134.882V17.9273L134.889 17.935ZM143.775 0.69907V6.73437H152.327V28.5376H158.697V6.73437H166.744V0.69907H143.768H143.775ZM31.932 23.6752H6.94409V28.5376H31.932V23.6752ZM2.41567 23.5509C1.07967 23.5509 0 24.6306 0 25.9666C0 27.3026 1.07967 28.3822 2.41567 28.3822C3.75167 28.3822 4.83135 27.3026 4.83135 25.9666C4.83135 24.6306 3.75167 23.5509 2.41567 23.5509Z" fill="black"/>
</g>
<defs>
<clipPath id="clip0_472_11162">
<rect width="166.751" height="28.9027" fill="white"/>
</clipPath>
</defs>
</svg>
